<?xml version="1.0" encoding="utf-8"?>
<!-- Generator: Adobe Illustrator 16.0.0, SVG Export Plug-In . SVG Version: 6.00 Build 0)  -->
<!DOCTYPE svg PUBLIC "-//W3C//DTD SVG 1.1//EN" "http://www.w3.org/Graphics/SVG/1.1/DTD/svg11.dtd">
<svg version="1.1" id="Layer_1" xmlns="http://www.w3.org/2000/svg" xmlns:xlink="http://www.w3.org/1999/xlink" x="0px" y="0px"
	 width="390px" height="390px" viewBox="0 0 390 390" enable-background="new 0 0 390 390" xml:space="preserve">
<g>
	<g>
		<path fill-rule="evenodd" clip-rule="evenodd" fill="#3178C5" d="M390.325,390.325c-130,0-260,0-390,0c0-130,0-260,0-390
			c130,0,260,0,390,0C390.325,130.325,390.325,260.325,390.325,390.325z M178.1,216.757c0.701-0.03,1.402-0.086,2.104-0.086
			c14.787-0.005,29.574-0.004,44.361-0.004c0.626,0,1.253,0,1.884,0c0-10.523,0-20.795,0-31.081c-45.437,0-90.78,0-136.093,0
			c0,10.417,0,20.682,0,31.132c16.245,0,32.359,0,48.672,0c0,46.52,0,92.853,0,139.227c13.005,0,25.809,0,38.764,0
			c0-0.8,0-1.494,0-2.188c0-44.849,0-89.697,0.002-134.546c0-0.703,0.03-1.406,0.046-2.109
			C177.927,216.986,178.013,216.871,178.1,216.757z M241.798,312.408c0,11.583-0.012,23.33,0.042,35.077
			c0.002,0.478,0.517,1.203,0.967,1.388c3.522,1.442,7.03,2.959,10.649,4.117c9.929,3.179,20.174,4.529,30.567,4.825
			c8.739,0.249,17.461,0.157,26.126-1.29c7.039-1.176,13.917-2.824,20.475-5.74c12.238-5.442,20.824-14.092,24.456-27.248
			c2.031-7.357,2.859-14.771,2.19-22.433c-0.419-4.8-1.454-9.354-3.174-13.798c-2.769-7.155-7.926-12.449-13.651-17.26
			c-6.654-5.592-14.401-9.372-22.188-13.034c-6.896-3.243-13.962-6.129-20.823-9.441c-5.139-2.481-9.854-5.687-13.467-10.236
			c-2.148-2.704-3.394-5.865-3.094-9.273c0.4-4.578,2.839-8.14,6.589-10.808c4.971-3.537,10.7-4.724,16.593-5.342
			c6.097-0.64,12.126-0.075,18.173,0.903c7.261,1.174,14.229,3.188,20.858,6.324c2.47,1.168,4.783,2.665,7.271,4.07
			c0.04-0.35,0.105-0.649,0.105-0.95c0.006-11.102-0.009-22.204,0.028-33.307c0.003-1.011-0.385-1.462-1.286-1.711
			c-4.205-1.165-8.342-2.725-12.621-3.448c-6.555-1.108-13.187-1.959-19.819-2.355c-10.794-0.644-21.533-0.053-32.201,2.11
			c-9.353,1.896-17.977,5.257-25.678,10.9c-8.056,5.902-13.375,13.826-16.322,23.242c-1.692,5.41-1.902,11.103-1.77,16.802
			c0.11,4.719,0.953,9.296,2.47,13.684c2.393,6.919,6.609,12.741,11.952,17.721c7.673,7.152,16.898,11.807,26.306,16.142
			c6.234,2.873,12.595,5.491,18.717,8.583c5.478,2.767,10.55,6.2,14.07,11.472c2.579,3.863,2.813,8.138,1.892,12.422
			c-1.019,4.74-4.455,7.644-8.661,9.667c-4.073,1.96-8.396,3.009-12.895,3.454c-6.142,0.608-12.298,0.588-18.35-0.447
			c-7.21-1.234-14.236-3.351-20.741-6.778C250.888,317.951,246.42,315.115,241.798,312.408z"/>
		<path fill-rule="evenodd" clip-rule="evenodd" fill="#FEFEFE" d="M241.798,312.408c4.622,2.707,9.09,5.543,13.756,8.002
			c6.505,3.428,13.531,5.544,20.741,6.778c6.052,1.035,12.208,1.056,18.35,0.447c4.498-0.445,8.821-1.494,12.895-3.454
			c4.206-2.023,7.643-4.927,8.661-9.667c0.921-4.284,0.688-8.559-1.892-12.422c-3.521-5.271-8.593-8.705-14.07-11.472
			c-6.122-3.092-12.482-5.71-18.717-8.583c-9.407-4.335-18.633-8.989-26.306-16.142c-5.343-4.979-9.56-10.802-11.952-17.721
			c-1.517-4.388-2.359-8.965-2.47-13.684c-0.133-5.699,0.077-11.392,1.77-16.802c2.947-9.416,8.267-17.34,16.322-23.242
			c7.701-5.643,16.325-9.004,25.678-10.9c10.668-2.163,21.407-2.754,32.201-2.11c6.633,0.396,13.265,1.247,19.819,2.355
			c4.279,0.724,8.416,2.283,12.621,3.448c0.901,0.25,1.289,0.7,1.286,1.711c-0.037,11.103-0.022,22.205-0.028,33.307
			c0,0.301-0.065,0.601-0.105,0.95c-2.488-1.405-4.802-2.902-7.271-4.07c-6.63-3.136-13.598-5.15-20.858-6.324
			c-6.047-0.979-12.076-1.543-18.173-0.903c-5.893,0.618-11.622,1.805-16.593,5.342c-3.75,2.668-6.188,6.229-6.589,10.808
			c-0.3,3.408,0.945,6.569,3.094,9.273c3.613,4.55,8.328,7.755,13.467,10.236c6.861,3.313,13.927,6.198,20.823,9.441
			c7.787,3.662,15.534,7.442,22.188,13.034c5.726,4.811,10.883,10.104,13.651,17.26c1.72,4.443,2.755,8.998,3.174,13.798
			c0.669,7.661-0.159,15.075-2.19,22.433c-3.632,13.156-12.218,21.806-24.456,27.248c-6.558,2.916-13.436,4.564-20.475,5.74
			c-8.665,1.447-17.387,1.539-26.126,1.29c-10.394-0.296-20.639-1.646-30.567-4.825c-3.619-1.158-7.127-2.675-10.649-4.117
			c-0.45-0.185-0.965-0.91-0.967-1.388C241.786,335.738,241.798,323.991,241.798,312.408z"/>
		<path fill-rule="evenodd" clip-rule="evenodd" fill="#FEFEFE" d="M177.84,217.102c-0.016,0.703-0.046,1.406-0.046,2.109
			c-0.002,44.849-0.002,89.697-0.002,134.546c0,0.694,0,1.389,0,2.188c-12.955,0-25.759,0-38.764,0c0-46.374,0-92.707,0-139.227
			c-16.313,0-32.427,0-48.672,0c0-10.45,0-20.715,0-31.132c45.313,0,90.656,0,136.093,0c0,10.286,0,20.557,0,31.081
			c-0.631,0-1.258,0-1.884,0c-14.787,0-29.574-0.001-44.361,0.004c-0.702,0-1.403,0.056-2.104,0.086
			C178.013,216.871,177.927,216.986,177.84,217.102z"/>
		<path fill-rule="evenodd" clip-rule="evenodd" fill="#4484CA" d="M177.84,217.102c0.086-0.115,0.173-0.23,0.259-0.345
			C178.013,216.871,177.927,216.986,177.84,217.102z"/>
	</g>
</g>
</svg>
