<?xml version="1.0" encoding="utf-8"?>
<!-- Generator: Adobe Illustrator 16.0.0, SVG Export Plug-In . SVG Version: 6.00 Build 0)  -->
<!DOCTYPE svg PUBLIC "-//W3C//DTD SVG 1.1//EN" "http://www.w3.org/Graphics/SVG/1.1/DTD/svg11.dtd">
<svg version="1.1" id="Layer_1" xmlns="http://www.w3.org/2000/svg" xmlns:xlink="http://www.w3.org/1999/xlink" x="0px" y="0px"
	 width="612px" height="792px" viewBox="0 0 612 792" enable-background="new 0 0 612 792" xml:space="preserve">
<g>
	
		<line fill="none" stroke="#000000" stroke-width="7" stroke-miterlimit="10" x1="235.046" y1="436.546" x2="271.288" y2="580.844"/>
	
		<line fill="none" stroke="#000000" stroke-width="7" stroke-miterlimit="10" x1="378.197" y1="477.091" x2="235.046" y2="436.546"/>
	
		<line fill="none" stroke="#000000" stroke-width="7" stroke-miterlimit="10" x1="271.288" y1="580.844" x2="378.197" y2="477.091"/>
	<path fill="none" stroke="#000000" stroke-width="7" stroke-miterlimit="10" d="M128.138,540.299"/>
	
		<line fill="none" stroke="#000000" stroke-width="7" stroke-miterlimit="10" x1="271.288" y1="580.844" x2="128.138" y2="540.299"/>
	<path fill="none" stroke="#000000" stroke-width="7" stroke-miterlimit="10" d="M128.138,540.299"/>
	<polyline fill="none" stroke="#000000" stroke-width="7" stroke-miterlimit="10" points="128.138,540.299 164.379,684.692 
		271.288,580.844 	"/>
	
		<line fill="none" stroke="#000000" stroke-width="7" stroke-miterlimit="10" x1="128.138" y1="540.299" x2="235.046" y2="436.546"/>
	<line fill="none" stroke="#000000" stroke-width="7" stroke-miterlimit="10" x1="235.046" y1="436.546" x2="342.05" y2="332.696"/>
	<line fill="none" stroke="#000000" stroke-width="7" stroke-miterlimit="10" x1="342.05" y1="332.696" x2="448.959" y2="228.943"/>
	<line fill="none" stroke="#000000" stroke-width="7" stroke-miterlimit="10" x1="305.809" y1="188.398" x2="342.05" y2="332.696"/>
	<line fill="none" stroke="#000000" stroke-width="7" stroke-miterlimit="10" x1="342.05" y1="332.696" x2="198.804" y2="292.247"/>
	
		<line fill="none" stroke="#000000" stroke-width="7" stroke-miterlimit="10" x1="198.804" y1="292.247" x2="235.046" y2="436.546"/>
	<line fill="none" stroke="#000000" stroke-width="7" stroke-miterlimit="10" x1="235.046" y1="436.546" x2="91.896" y2="396"/>
	<line fill="none" stroke="#000000" stroke-width="7" stroke-miterlimit="10" x1="91.896" y1="396" x2="128.138" y2="540.299"/>
	<line fill="none" stroke="#000000" stroke-width="7" stroke-miterlimit="10" x1="55.654" y1="251.702" x2="91.896" y2="396"/>
	<line fill="none" stroke="#000000" stroke-width="7" stroke-miterlimit="10" x1="198.804" y1="292.247" x2="55.654" y2="251.702"/>
	<line fill="none" stroke="#000000" stroke-width="7" stroke-miterlimit="10" x1="91.896" y1="396" x2="198.804" y2="292.247"/>
	
		<line fill="none" stroke="#000000" stroke-width="7" stroke-miterlimit="10" x1="198.804" y1="292.151" x2="305.809" y2="188.398"/>
	
		<line fill="none" stroke="#000000" stroke-width="7" stroke-miterlimit="10" x1="305.809" y1="188.398" x2="162.563" y2="147.853"/>
	
		<line fill="none" stroke="#000000" stroke-width="7" stroke-miterlimit="10" x1="162.563" y1="147.853" x2="198.804" y2="292.151"/>
	<polyline fill="none" stroke="#000000" stroke-width="7" stroke-miterlimit="10" points="55.654,251.702 19.412,107.308 
		162.563,147.853 	"/>
	<line fill="none" stroke="#000000" stroke-width="7" stroke-miterlimit="10" x1="55.654" y1="251.702" x2="162.563" y2="147.853"/>
	<polyline fill="none" stroke="#000000" stroke-width="7" stroke-miterlimit="10" points="485.201,373.241 592.11,269.488 
		448.959,228.943 	"/>
	
		<line fill="none" stroke="#000000" stroke-width="7" stroke-miterlimit="10" x1="448.959" y1="228.943" x2="485.201" y2="373.241"/>
	<line fill="none" stroke="#000000" stroke-width="7" stroke-miterlimit="10" x1="485.201" y1="373.241" x2="342.05" y2="332.696"/>
	<line fill="none" stroke="#000000" stroke-width="7" stroke-miterlimit="10" x1="342.05" y1="332.696" x2="378.197" y2="477.091"/>
	
		<line fill="none" stroke="#000000" stroke-width="7" stroke-miterlimit="10" x1="378.197" y1="477.091" x2="485.201" y2="373.241"/>
	
		<line fill="none" stroke="#000000" stroke-width="7" stroke-miterlimit="10" x1="448.959" y1="228.943" x2="305.809" y2="188.398"/>
</g>
</svg>
