<?xml version="1.0" encoding="utf-8"?>
<!-- Generator: Adobe Illustrator 16.0.0, SVG Export Plug-In . SVG Version: 6.00 Build 0)  -->
<!DOCTYPE svg PUBLIC "-//W3C//DTD SVG 1.1//EN" "http://www.w3.org/Graphics/SVG/1.1/DTD/svg11.dtd">
<svg version="1.1" id="Layer_1" xmlns="http://www.w3.org/2000/svg" xmlns:xlink="http://www.w3.org/1999/xlink" x="0px" y="0px"
	 width="24px" height="24px" viewBox="0 0 24 24" enable-background="new 0 0 24 24" xml:space="preserve">
<path fill="" d="M7,7H5C3.896,7,3,7.896,3,9v8h2v-4h2v4h2V9C9,7.896,8.104,7,7,7 M7,11H5V9h2 M14,7h-4v10h2v-4h2
	c1.104,0,2-0.896,2-2V9C16,7.896,15.104,7,14,7 M14,11h-2V9h2 M20,9v6h1v2h-4v-2h1V9h-1V7h4v2H20z"/>
</svg>
