<?xml version="1.0" encoding="utf-8"?>
<!-- Generator: Adobe Illustrator 16.0.0, SVG Export Plug-In . SVG Version: 6.00 Build 0)  -->
<!DOCTYPE svg PUBLIC "-//W3C//DTD SVG 1.1//EN" "http://www.w3.org/Graphics/SVG/1.1/DTD/svg11.dtd">
<svg version="1.1" id="Layer_1" xmlns="http://www.w3.org/2000/svg" xmlns:xlink="http://www.w3.org/1999/xlink" x="0px" y="0px"
	 width="612px" height="792px" viewBox="0 0 612 792" enable-background="new 0 0 612 792" xml:space="preserve">
<path fill="#066DA5" stroke="#000000" stroke-width="38" d="M353.813,360.14h50.203 M294.047,360.14h50.203 M235.477,360.14h50.203
	 M176.906,360.14h49.008 M117.141,360.14h50.203 M176.906,305.156h49.008 M235.477,305.156h50.203 M294.047,305.156h50.203
	 M294.047,250.172h50.203"/>
<path d="M564.188,362.531c0,0-21.516-20.32-65.742-13.148c-4.781-34.664-41.836-54.984-41.836-54.984s-34.664,41.836-9.563,88.453
	c-7.172,3.586-19.125,8.367-37.055,8.367H81.281c-5.977,22.711-5.977,173.32,158.977,173.32
	c118.336,0,206.789-54.984,248.625-155.391C551.039,413.929,564.188,362.531,564.188,362.531"/>
</svg>
