<?xml version="1.0" encoding="utf-8"?>
<!-- Generator: Adobe Illustrator 16.0.0, SVG Export Plug-In . SVG Version: 6.00 Build 0)  -->
<!DOCTYPE svg PUBLIC "-//W3C//DTD SVG 1.1//EN" "http://www.w3.org/Graphics/SVG/1.1/DTD/svg11.dtd">
<svg version="1.1" id="Layer_1" xmlns="http://www.w3.org/2000/svg" xmlns:xlink="http://www.w3.org/1999/xlink" x="0px" y="0px"
	 width="2499px" height="2500px" viewBox="0 0 2499 2500" enable-background="new 0 0 2499 2500" xml:space="preserve">
<path d="M2498.089,1249.421c0,689.598-559.046,1248.598-1248.495,1248.598C559.918,2498.019,0.91,1939.018,0.91,1249.421
	C0.91,559.986,559.918,0.94,1249.594,0.94C1939.074,0.942,2498.089,559.986,2498.089,1249.421L2498.089,1249.421z"/>
<g>
	<path fill="#FFFFFF" d="M1726.386,1695.919c-23.509,0-47.581-1.691-71.256-5.216c-198.467-28.326-331.175-170.865-405.509-280.438
		c-74.57,109.572-207.269,252.253-405.646,280.541c-23.604,3.38-47.421,5.074-71.268,5.071
		c-123.389,0-239.224-45.924-326.354-129.308c-87.96-84.074-136.498-196.894-136.498-317.193
		c0-120.452,48.536-233.116,136.626-317.343c87.046-83.396,202.966-129.187,326.408-129.187c23.525,0,47.472,1.69,71.067,5.068
		c198.383,28.292,331.076,170.849,405.65,280.44c74.35-109.592,207.047-252.106,405.497-280.44
		c23.675-3.393,47.619-5.068,71.146-5.068c123.389,0,239.302,45.908,326.346,129.187c88.045,84.227,136.473,196.891,136.473,317.343
		c0,120.3-48.305,233.119-136.347,317.193C1965.523,1649.951,1849.782,1695.919,1726.386,1695.919 M1337.497,1249.421
		c38.76,73.819,153.1,258.016,339.996,284.784c16.361,2.251,32.832,3.502,48.878,3.502c167.885,0,304.544-129.306,304.544-288.329
		c0-159.024-136.629-288.328-304.663-288.328c-16.049,0-32.514,1.146-48.722,3.498
		C1490.599,991.253,1376.259,1175.449,1337.497,1249.421 M772.888,961.092c-168.107,0-304.789,129.299-304.789,288.328
		c0,158.996,136.625,288.33,304.58,288.33c16.12,0,32.593-1.254,48.95-3.501c186.904-26.766,301.21-210.859,339.991-284.784
		c-38.676-73.82-153.089-258.169-339.991-284.786C805.463,962.237,788.948,961.092,772.888,961.092"/>
	<path fill="#FFFFFF" d="M645.365,1205.762H923.32v89.566H645.365V1205.762z M1851.182,1205.762h-94.102v-94.239h-89.871v94.239
		h-94.059v89.566h94.059v94.222h89.871v-94.222h94.102V1205.762z"/>
</g>
</svg>
